<svg xmlns="http://www.w3.org/2000/svg" width="256" height="256" viewBox="0 0 48 48"><path fill="none" stroke="#ffffff" stroke-linecap="round" stroke-linejoin="round" d="M31.97 33.128c5.146-5.785 5.618-11.022 5.797-13.649"/><path fill="none" stroke="#ffffff" stroke-linecap="round" stroke-linejoin="round" d="M37.764 19.48c4.61-.866 6.127-3.58 6.623-5.779c.269-1.19.016-1.792-.316-1.97c-.332-.18-.742.064-1.117.463c-1.892 2.01-3.02.998-4.405 1.37c-.765.206-1.218.796-1.655.56s-.86-1.303-1.476-1.745c-.617-.443-1.428-.264-1.982-.965c-.553-.7-.959-2.436-1.38-2.384c-.99 0-1.573 1.995-1.579 3.698c-.005 1.754.919 3.887 3.557 5.824c0 0-.455 1.457-.602 2.205h.004c-3.954-1.765-6.14-5.062-9.006-7.254c-.902-.69-.89-1.382-.325-1.888c.564-.506 1.555-.843 1.38-1.133c-.173-.29-1.512-.532-2.814-.353s-2.566.78-3.831 1.38c0 0-1.129-.727-3.19-.727c-8.454 0-12.15 6.554-12.15 12.119c0 6.636 6.091 16.07 16.107 16.07c7.585 0 9.221-3.111 9.221-3.111c3.708 1.206 6.08.788 6.924-.333c.753-1-2.268-1.808-3.784-2.399"/><path fill="none" stroke="#ffffff" stroke-linecap="round" stroke-linejoin="round" d="M17.62 31.213c-1.018-.12-.156 2.938-.156 2.938c-2.034.442-4.743.295-8.299-4.835c-2.885-4.162-3.427-8.892-1.975-9.232c1.45-.34 5.668.345 8.64 2.403c2.974 2.059 5.858 5.86 7.827 8.191s3.04 3.558 5.171 5.182c-7.119-.45-8.582-4.339-11.207-4.647m8.454-10.385c2.442 0 4.771 3.392 4.771 4.927c0 .618-.721.783-1.607.783s-2.154-.412-2.154-2.04s-.122-2.329-1.44-2.329s-.992-1.34.43-1.34"/><circle cx="25.294" cy="23.751" r=".735" fill="#ffffff"/></svg>